name D:\school\WTK\thesis\model\3dpredictsim\Results\MidTarsalJoint\Fal_s1_bCst_PF_Natali2010_ls150_MT_k300_d010_MTP_T5_ig23.mot
datacolumns 128
datarows 4
range 1.14124449 1.17548182
endheader
time	pelvis_tilt	pelvis_list	pelvis_rotation	pelvis_tx	pelvis_ty	pelvis_tz	hip_flexion_l	hip_adduction_l	hip_rotation_l	hip_flexion_r	hip_adduction_r	hip_rotation_r	knee_angle_l	knee_angle_r	ankle_angle_l	ankle_angle_r	subtalar_angle_l	subtalar_angle_r	mtj_angle_l	mtj_angle_r	mtp_angle_l	mtp_angle_r	lumbar_extension	lumbar_bending	lumbar_rotation	arm_flex_l	arm_add_l	arm_rot_l	arm_flex_r	arm_add_r	arm_rot_r	elbow_flex_l	elbow_flex_r	pro_sup_l	pro_sup_r	glut_med1_l/activation	glut_med2_l/activation	glut_med3_l/activation	glut_min1_l/activation	glut_min2_l/activation	glut_min3_l/activation	semimem_l/activation	semiten_l/activation	bifemlh_l/activation	bifemsh_l/activation	sar_l/activation	add_long_l/activation	add_brev_l/activation	add_mag1_l/activation	add_mag2_l/activation	add_mag3_l/activation	tfl_l/activation	pect_l/activation	grac_l/activation	glut_max1_l/activation	glut_max2_l/activation	glut_max3_l/activation	iliacus_l/activation	psoas_l/activation	quad_fem_l/activation	gem_l/activation	peri_l/activation	rect_fem_l/activation	vas_med_l/activation	vas_int_l/activation	vas_lat_l/activation	med_gas_l/activation	lat_gas_l/activation	soleus_l/activation	tib_post_l/activation	flex_dig_l/activation	flex_hal_l/activation	tib_ant_l/activation	per_brev_l/activation	per_long_l/activation	per_tert_l/activation	ext_dig_l/activation	ext_hal_l/activation	ercspn_l/activation	intobl_l/activation	extobl_l/activation	glut_med1_r/activation	glut_med2_r/activation	glut_med3_r/activation	glut_min1_r/activation	glut_min2_r/activation	glut_min3_r/activation	semimem_r/activation	semiten_r/activation	bifemlh_r/activation	bifemsh_r/activation	sar_r/activation	add_long_r/activation	add_brev_r/activation	add_mag1_r/activation	add_mag2_r/activation	add_mag3_r/activation	tfl_r/activation	pect_r/activation	grac_r/activation	glut_max1_r/activation	glut_max2_r/activation	glut_max3_r/activation	iliacus_r/activation	psoas_r/activation	quad_fem_r/activation	gem_r/activation	peri_r/activation	rect_fem_r/activation	vas_med_r/activation	vas_int_r/activation	vas_lat_r/activation	med_gas_r/activation	lat_gas_r/activation	soleus_r/activation	tib_post_r/activation	flex_dig_r/activation	flex_hal_r/activation	tib_ant_r/activation	per_brev_r/activation	per_long_r/activation	per_tert_r/activation	ext_dig_r/activation	ext_hal_r/activation	ercspn_r/activation	intobl_r/activation	extobl_r/activation	
          1.14124449	         -2.92687937	         -2.30336883	          5.85341993	          1.42655561	          0.91819165	         -0.00123955	        -16.55485872	         -1.67847154	          6.42541758	         28.64328736	          3.89563366	         -1.84034656	        -11.03502033	        -11.92481918	         -3.30994560	          4.57681206	         10.75736672	         -4.82490939	          3.52620295	         -0.02016808	         14.41037653	         -0.85784350	         -1.76451214	          0.58055811	         -2.16309827	          4.99840847	        -13.47033453	         17.76581284	         -5.30458311	        -13.46420830	          9.74722376	         34.77987930	         13.98578973	         86.51662706	         86.51662706	          0.21828687	          0.08430250	          0.05951132	          0.24670965	          0.16580829	          0.08808552	          0.05000219	          0.05000046	          0.05000061	          0.05000011	          0.08671974	          0.18678935	          0.05951216	          0.05952176	          0.05951106	          0.05951057	          0.24943303	          0.10015770	          0.05001733	          0.05000293	          0.05000229	          0.05001251	          0.30885058	          0.54513865	          0.05726906	          0.05951162	          0.05951052	          0.18706285	          0.08548006	          0.16578609	          0.14517015	          0.22751235	          0.31122527	          0.27098150	          0.21655948	          0.20216495	          0.26990435	          0.05000001	          0.05000011	          0.14381290	          0.05000007	          0.05000002	          0.05000010	          0.06093512	          0.06403035	          0.05951050	          0.05000001	          0.05000004	          0.10841948	          0.05000005	          0.05000005	          0.05000006	          0.08139879	          0.05000022	          0.17511601	          0.05000008	          0.05000121	          0.11188269	          0.26364762	          0.32423675	          0.21130258	          0.11563177	          0.05000054	          0.07082929	          0.13121048	          0.07101941	          0.08907800	          0.12083692	          0.05000006	          0.05000079	          0.43641491	          0.21961190	          0.11276599	          0.05951140	          0.16503445	          0.16522185	          0.14132507	          0.05000085	          0.05951252	          0.05000005	          0.05951058	          0.05000245	          0.05951041	          0.48083989	          0.29408792	          0.19877819	          0.21564604	          0.44216503	          0.19473461	          0.05000000	          0.09528083	          0.08430201	
          1.15265693	         -2.91924627	         -2.38627995	          6.08807535	          1.44420246	          0.91729042	         -0.00105501	        -16.34788816	         -1.97236972	          6.20941738	         27.80464149	          4.15919363	         -1.57414635	        -13.05474197	        -12.33262210	         -4.10000018	          4.08255239	         11.67874760	         -5.22562061	          2.49103768	         -0.21931547	         16.17818744	         -0.86884687	         -1.53975974	          0.79065585	         -2.22208126	          4.57140369	        -13.48120118	         17.91161312	         -6.25950497	        -13.47375269	          9.60191187	         35.98074544	         13.74179341	         86.51662706	         86.51662706	          0.33711537	          0.07083012	          0.05000095	          0.30065208	          0.13931053	          0.07400859	          0.05000125	          0.05000016	          0.05000013	          0.05000028	          0.07286161	          0.15693855	          0.05000168	          0.05000968	          0.05000101	          0.05000037	          0.22178222	          0.08415214	          0.05000105	          0.05000306	          0.05000136	          0.05000055	          0.25949317	          0.51219903	          0.05000031	          0.05000153	          0.05000029	          0.15716830	          0.07181956	          0.13929185	          0.12197053	          0.19115354	          0.26148828	          0.22767587	          0.18195107	          0.16985699	          0.22677092	          0.05000027	          0.07249197	          0.17230350	          0.05000017	          0.09252317	          0.05000033	          0.05703622	          0.05379765	          0.05000013	          0.24172284	          0.25043120	          0.31034001	          0.37816363	          0.22640157	          0.20068287	          0.08321941	          0.06575846	          0.14967194	          0.08430176	          0.05006577	          0.09400272	          0.22151406	          0.27242045	          0.17753439	          0.11692924	          0.05000027	          0.05951231	          0.11024298	          0.14063981	          0.10269307	          0.10152603	          0.05686430	          0.05000043	          0.36667136	          0.18451575	          0.24081092	          0.05000088	          0.13866030	          0.13881776	          0.11873991	          0.05000057	          0.05000193	          0.05140664	          0.05000023	          0.05000027	          0.05000043	          0.56954025	          0.34420710	          0.18235113	          0.36312341	          0.51532917	          0.22616904	          0.06450254	          0.11285259	          0.07082968	
          1.16406938	         -2.90953169	         -2.46068632	          6.28669190	          1.46190528	          0.91643799	         -0.00084952	        -16.03397034	         -2.25058849	          6.00662107	         26.91590902	          4.40041846	         -1.30823150	        -15.21843553	        -12.70089702	         -5.02024697	          3.63135785	         12.54677976	         -5.63533080	          1.36725716	         -0.15993876	         17.83158887	         -0.83427269	         -1.31963181	          0.99918899	         -2.27088921	          4.10390814	        -13.49906237	         18.00456682	         -7.18820191	        -13.48396033	          9.51338362	         37.15169817	         13.52050125	         86.51662706	         86.51662706	          0.28324102	          0.05951076	          0.05000004	          0.25260500	          0.11704733	          0.06218130	          0.05000098	          0.05000009	          0.05000009	          0.05000008	          0.06121773	          0.16578008	          0.10066541	          0.05000070	          0.05000380	          0.05004720	          0.18633932	          0.07070576	          0.05000038	          0.05000114	          0.05000076	          0.05000057	          0.21802352	          0.46280376	          0.05000008	          0.05000031	          0.05000010	          0.13205120	          0.11331705	          0.11703267	          0.10247878	          0.16060523	          0.21969976	          0.19129092	          0.15287344	          0.14271218	          0.19053066	          0.12181511	          0.14443279	          0.14785951	          0.06146852	          0.16840140	          0.05000403	          0.08497937	          0.05000000	          0.05000002	          0.34573491	          0.35062639	          0.38289931	          0.31772935	          0.19022076	          0.22471850	          0.07760786	          0.09591824	          0.12575307	          0.07082959	          0.05000033	          0.07898015	          0.18611389	          0.22888521	          0.18730659	          0.16062854	          0.05000020	          0.05000297	          0.10031147	          0.23446123	          0.17836578	          0.15747608	          0.05000006	          0.05000007	          0.30807354	          0.15502830	          0.20232739	          0.05000003	          0.16140143	          0.17303755	          0.13050515	          0.05000001	          0.05000003	          0.05000000	          0.05000001	          0.05000008	          0.05000008	          0.63111315	          0.28919953	          0.15320971	          0.57832195	          0.55025777	          0.32804510	          0.08340105	          0.09481759	          0.05951038	
          1.17548182	         -2.89833838	         -2.53017845	          6.45004129	          1.47944719	          0.91570207	         -0.00061649	        -15.57800464	         -2.50873951	          5.81287503	         26.08265496	          4.65013161	         -1.04043107	        -17.56334135	        -13.13735913	         -6.02225412	          3.12098186	         13.34061912	         -6.04091878	          0.22457922	         -0.19186439	         19.05209309	         -0.83078227	         -1.12039329	          1.21067270	         -2.31151175	          3.64125361	        -13.51964415	         18.07714016	         -8.04693614	        -13.49343277	          9.47552939	         38.24915597	         13.29773607	         86.51662706	         86.51662706	          0.23797625	          0.05000039	          0.05000006	          0.21223624	          0.09834203	          0.05224415	          0.05003069	          0.05002163	          0.05742260	          0.05000014	          0.05143471	          0.17837534	          0.14293078	          0.12086811	          0.05001842	          0.11941910	          0.15656064	          0.05940698	          0.05000073	          0.05000158	          0.05000111	          0.05000079	          0.18318114	          0.41326487	          0.05000010	          0.05000042	          0.05000013	          0.11094806	          0.09520787	          0.09832969	          0.08610165	          0.13493886	          0.18458949	          0.16072066	          0.12844275	          0.11990547	          0.16008202	          0.19685501	          0.12135128	          0.12423021	          0.20496057	          0.22284140	          0.11297844	          0.11147576	          0.05000001	          0.05000002	          0.44958924	          0.45802066	          0.47872137	          0.26695609	          0.27706105	          0.34103614	          0.07152931	          0.09931622	          0.10565694	          0.05951037	          0.05000020	          0.06635835	          0.15637105	          0.19766243	          0.23294464	          0.18561500	          0.05000017	          0.05000190	          0.08428240	          0.29897220	          0.22652870	          0.19660672	          0.05000005	          0.05000004	          0.25884026	          0.13025324	          0.20164075	          0.05000004	          0.26320297	          0.26976114	          0.21866148	          0.05000002	          0.05000006	          0.05000000	          0.09307801	          0.05000462	          0.05000078	          0.71521144	          0.24298249	          0.12872524	          0.48590024	          0.53574418	          0.36175710	          0.09640275	          0.07966477	          0.05000004	
